HIERARCHY
ROOT Hips
{
    OFFSET   0.000000   0.000000   0.000000
    CHANNELS 6 Xposition Yposition Zposition Zrotation Xrotation Yrotation
    JOINT Chest
    {
        OFFSET   0.000000   8.007230   0.000000
        CHANNELS 3 Zrotation Xrotation Yrotation
        JOINT Chest2
        {
            OFFSET   0.000000  22.077100   0.000000
            CHANNELS 3 Zrotation Xrotation Yrotation
            JOINT Neck
            {
                OFFSET   0.000000  23.255100   0.000000
                CHANNELS 3 Zrotation Xrotation Yrotation
                JOINT Head
                {
                    OFFSET   0.000000  14.370100   1.956600
                    CHANNELS 3 Zrotation Xrotation Yrotation
                    End Site
                    {
                        OFFSET   0.000000  19.566000   0.000000
                    }
                }
            }
            JOINT LeftCollar
            {
                OFFSET   3.911900  19.017000  -0.467063
                CHANNELS 3 Zrotation Xrotation Yrotation
                JOINT LeftShoulder
                {
                    OFFSET  10.383700   0.000000   0.000000
                    CHANNELS 3 Zrotation Xrotation Yrotation
                    JOINT LeftElbow
                    {
                        OFFSET  26.662100   0.001193   0.000980
                        CHANNELS 3 Zrotation Xrotation Yrotation
                        JOINT LeftWrist
                        {
                            OFFSET  28.869000  -0.000059  -0.000082
                            CHANNELS 3 Zrotation Xrotation Yrotation
                            JOINT LeftFinger0
                            {
                                OFFSET   2.044650  -2.323450   3.252850
                                CHANNELS 3 Zrotation Xrotation Yrotation
                                JOINT LeftFinger01
                                {
                                    OFFSET   3.088130   0.000000   0.000000
                                    CHANNELS 3 Zrotation Xrotation Yrotation
                                    JOINT LeftFinger02
                                    {
                                        OFFSET   2.639460   0.000000   0.000000
                                        CHANNELS 3 Zrotation Xrotation Yrotation
                                        End Site
                                        {
                                            OFFSET   2.582190   0.000000   0.000000
                                        }
                                    }
                                }
                            }
                            JOINT LeftFinger1
                            {
                                OFFSET   8.364480   0.000000   3.252850
                                CHANNELS 3 Zrotation Xrotation Yrotation
                                JOINT LeftFinger11
                                {
                                    OFFSET   4.646930   0.000000   0.000000
                                    CHANNELS 3 Zrotation Xrotation Yrotation
                                    JOINT LeftFinger12
                                    {
                                        OFFSET   2.323470   0.000000   0.000000
                                        CHANNELS 3 Zrotation Xrotation Yrotation
                                        End Site
                                        {
                                            OFFSET   2.273050   0.000000   0.000000
                                        }
                                    }
                                }
                            }
                            JOINT LeftFinger2
                            {
                                OFFSET   8.364490   0.000016   1.078090
                                CHANNELS 3 Zrotation Xrotation Yrotation
                                JOINT LeftFinger21
                                {
                                    OFFSET   5.111610   0.000000   0.000000
                                    CHANNELS 3 Zrotation Xrotation Yrotation
                                    JOINT LeftFinger22
                                    {
                                        OFFSET   2.788150   0.000016   0.000000
                                        CHANNELS 3 Zrotation Xrotation Yrotation
                                        End Site
                                        {
                                            OFFSET   2.727660   0.000000   0.000000
                                        }
                                    }
                                }
                            }
                            JOINT LeftFinger3
                            {
                                OFFSET   7.899780   0.000015  -1.078090
                                CHANNELS 3 Zrotation Xrotation Yrotation
                                JOINT LeftFinger31
                                {
                                    OFFSET   4.646930   0.000000   0.000000
                                    CHANNELS 3 Zrotation Xrotation Yrotation
                                    JOINT LeftFinger32
                                    {
                                        OFFSET   2.323470   0.000000   0.000000
                                        CHANNELS 3 Zrotation Xrotation Yrotation
                                        End Site
                                        {
                                            OFFSET   2.273050   0.000000   0.000000
                                        }
                                    }
                                }
                            }
                            JOINT LeftFinger4
                            {
                                OFFSET   7.435090   0.000000  -3.252850
                                CHANNELS 3 Zrotation Xrotation Yrotation
                                JOINT LeftFinger41
                                {
                                    OFFSET   3.717550   0.000000   0.000000
                                    CHANNELS 3 Zrotation Xrotation Yrotation
                                    JOINT LeftFinger42
                                    {
                                        OFFSET   1.858770   0.000000   0.000000
                                        CHANNELS 3 Zrotation Xrotation Yrotation
                                        End Site
                                        {
                                            OFFSET   1.818440   0.000000   0.000000
                                        }
                                    }
                                }
                            }
                        }
                    }
                }
            }
            JOINT RightCollar
            {
                OFFSET  -3.911910  19.017000  -0.467062
                CHANNELS 3 Zrotation Xrotation Yrotation
                JOINT RightShoulder
                {
                    OFFSET -10.383700   0.000014   0.000000
                    CHANNELS 3 Zrotation Xrotation Yrotation
                    JOINT RightElbow
                    {
                        OFFSET -26.662100   0.001225   0.001091
                        CHANNELS 3 Zrotation Xrotation Yrotation
                        JOINT RightWrist
                        {
                            OFFSET -28.869000  -0.000020  -0.000085
                            CHANNELS 3 Zrotation Xrotation Yrotation
                            JOINT RightFinger0
                            {
                                OFFSET  -2.044650  -2.323490   3.252850
                                CHANNELS 3 Zrotation Xrotation Yrotation
                                JOINT RightFinger01
                                {
                                    OFFSET  -3.088130   0.000000   0.000000
                                    CHANNELS 3 Zrotation Xrotation Yrotation
                                    JOINT RightFinger02
                                    {
                                        OFFSET  -2.639460   0.000000   0.000000
                                        CHANNELS 3 Zrotation Xrotation Yrotation
                                        End Site
                                        {
                                            OFFSET  -2.582190   0.000000   0.000000
                                        }
                                    }
                                }
                            }
                            JOINT RightFinger1
                            {
                                OFFSET  -8.364480   0.000000   3.252850
                                CHANNELS 3 Zrotation Xrotation Yrotation
                                JOINT RightFinger11
                                {
                                    OFFSET  -4.646930   0.000000   0.000000
                                    CHANNELS 3 Zrotation Xrotation Yrotation
                                    JOINT RightFinger12
                                    {
                                        OFFSET  -2.323470   0.000000   0.000000
                                        CHANNELS 3 Zrotation Xrotation Yrotation
                                        End Site
                                        {
                                            OFFSET  -2.273050   0.000000   0.000000
                                        }
                                    }
                                }
                            }
                            JOINT RightFinger2
                            {
                                OFFSET  -8.364480   0.000000   1.078090
                                CHANNELS 3 Zrotation Xrotation Yrotation
                                JOINT RightFinger21
                                {
                                    OFFSET  -5.111620   0.000000   0.000000
                                    CHANNELS 3 Zrotation Xrotation Yrotation
                                    JOINT RightFinger22
                                    {
                                        OFFSET  -2.788160   0.000000   0.000000
                                        CHANNELS 3 Zrotation Xrotation Yrotation
                                        End Site
                                        {
                                            OFFSET  -2.727660   0.000000   0.000000
                                        }
                                    }
                                }
                            }
                            JOINT RightFinger3
                            {
                                OFFSET  -7.899780   0.000000  -1.078090
                                CHANNELS 3 Zrotation Xrotation Yrotation
                                JOINT RightFinger31
                                {
                                    OFFSET  -4.646930   0.000000   0.000000
                                    CHANNELS 3 Zrotation Xrotation Yrotation
                                    JOINT RightFinger32
                                    {
                                        OFFSET  -2.323470   0.000000   0.000000
                                        CHANNELS 3 Zrotation Xrotation Yrotation
                                        End Site
                                        {
                                            OFFSET  -2.273050   0.000000   0.000000
                                        }
                                    }
                                }
                            }
                            JOINT RightFinger4
                            {
                                OFFSET  -7.435090   0.000000  -3.252850
                                CHANNELS 3 Zrotation Xrotation Yrotation
                                JOINT RightFinger41
                                {
                                    OFFSET  -3.717550   0.000000   0.000000
                                    CHANNELS 3 Zrotation Xrotation Yrotation
                                    JOINT RightFinger42
                                    {
                                        OFFSET  -1.858760   0.000000   0.000000
                                        CHANNELS 3 Zrotation Xrotation Yrotation
                                        End Site
                                        {
                                            OFFSET  -1.818440   0.000000   0.000000
                                        }
                                    }
                                }
                            }
                        }
                    }
                }
            }
        }
    }
    JOINT LeftHip
    {
        OFFSET   9.783030   0.000000   0.000000
        CHANNELS 3 Zrotation Xrotation Yrotation
        JOINT LeftKnee
        {
            OFFSET   0.000063 -41.789100   0.000608
            CHANNELS 3 Zrotation Xrotation Yrotation
            JOINT LeftAnkle
            {
                OFFSET   0.000048 -41.133200  -0.000184
                CHANNELS 3 Zrotation Xrotation Yrotation
                JOINT LeftToe
                {
                    OFFSET   0.000000  -6.358960  14.674500
                    CHANNELS 3 Zrotation Xrotation Yrotation
                    End Site
                    {
                        OFFSET   0.000000   0.000000   3.913200
                    }
                }
            }
        }
    }
    JOINT RightHip
    {
        OFFSET  -9.783030   0.000000   0.000000
        CHANNELS 3 Zrotation Xrotation Yrotation
        JOINT RightKnee
        {
            OFFSET   0.000071 -41.789100   0.001239
            CHANNELS 3 Zrotation Xrotation Yrotation
            JOINT RightAnkle
            {
                OFFSET   0.000037 -41.133200  -0.000166
                CHANNELS 3 Zrotation Xrotation Yrotation
                JOINT RightToe
                {
                    OFFSET   0.000000  -6.358960  14.674500
                    CHANNELS 3 Zrotation Xrotation Yrotation
                    End Site
                    {
                        OFFSET   0.000000   0.000000   3.913200
                    }
                }
            }
        }
    }
}
MOTION
Frames: 4
Frame Time:   0.016667
 -0.089011  89.639000  -1.815130  -2.010710  -6.024840  -4.688470   0.601184   3.805290   0.801245   1.152680   7.618460   1.567540   1.518330  -0.618224   0.016858   2.478850  -1.250730   1.274000  -5.801840  -0.631994  -0.456024 -75.238500  19.005800  -0.647339  -1.716880  -4.020190 -17.920800  18.041100 -14.280300   7.113280  38.868600  35.449300 -69.002400 -32.834300   0.001508   0.004150 -11.417200   0.002335   0.005697 -31.281300   5.980800  -9.746410 -26.009800  -0.004230  -0.005115 -18.206800  -0.002327  -0.008065 -28.542000  -1.061190   1.950620 -36.857400  -0.004720  -0.003553 -24.547000  -0.003008  -0.007800 -28.305600  -1.053140   1.954980 -34.410400  -0.001962  -0.001520 -22.917400   0.000312  -0.001666 -31.131700  -1.148440   1.900610 -46.725000  -0.007912   0.000000 -31.118900   0.000818  -0.012315  11.230900  -0.373613   6.309910  69.280000   9.321630  -3.755250  -1.561130  -5.540960  13.111000 -15.067200  -6.878810   2.336370 -39.548800  42.580600  76.836600  37.989900   0.003252  -0.002478  13.947700   0.002822  -0.000291  40.783700  11.455800  12.970700  34.437500  -0.001589   0.012836  24.537200  -0.001457   0.001688  28.657900   2.918200   5.321720  42.114000  -0.013026   0.006354  28.047900  -0.005357   0.007822  27.886400   1.794120   3.385220  31.605100   0.000525   0.005549  21.049000  -0.005122   0.006567  32.407800   0.801222   1.260920  48.624500  -0.004400   0.003865  32.383900  -0.002935   0.004942   1.560090   7.208910   2.441960   1.311330   0.000469   5.578910  -2.155770  -2.661350   0.975521  -0.000000   0.000000   0.000000   3.952550   4.467080  -1.485640  -2.269640   4.311610  -2.058300  -0.807521  -4.201690  -1.531490   0.000000   0.000000  -0.000000
 -0.087298  89.639100  -1.772770  -2.028760  -6.074210  -4.705420   0.611808   3.822690   0.801113   1.173890   7.653420   1.567000   1.518330  -0.629311   0.016926   2.486860  -1.273150   1.256510  -5.814730  -0.638951  -0.476872 -75.303000  19.287500  -0.701994  -1.690550  -4.043580 -17.945500  18.042200 -14.516600   7.237920  38.835300  35.383500 -68.869300 -32.849800   0.001501   0.004249 -11.427100   0.002155   0.005842 -31.256500   6.135170 -10.069000 -26.029700  -0.010743  -0.005115 -18.222300  -0.005881  -0.008064 -28.544600  -1.045430   1.921510 -36.871200  -0.004719  -0.003464 -24.556100  -0.003034  -0.007678 -28.316100  -1.037560   1.925570 -34.498600  -0.001860  -0.001511 -22.976000   0.000291  -0.001662 -31.173200  -1.132140   1.871300 -46.786400  -0.007943   0.000051 -31.159800   0.000849  -0.012382  11.247500  -0.495505   6.302240  69.394600   9.370900  -3.800680  -1.726040  -5.732970  13.257600 -14.794200  -6.682870   2.253400 -39.322900  42.414400  76.513800  38.196300   0.003217  -0.002449  14.120000   0.002766  -0.000356  40.835300  11.458600  12.947100  34.478800  -0.006692   0.012880  24.571500  -0.006439   0.002933  28.655900   2.886040   5.265170  41.673600  -0.013224   0.006323  27.754600  -0.005451   0.007802  27.846200   1.789700   3.385450  31.376000   0.000525   0.005407  20.896400  -0.005148   0.006477  32.330900   0.816350   1.289030  48.509700  -0.004412   0.003782  32.307500  -0.002989   0.004907   1.570680   7.268840   2.456500   1.305180   0.034588   5.578460  -2.151490  -2.710230   0.976028  -0.000000   0.000000   0.000000   3.949890   4.545870  -1.491880  -2.258690   4.314370  -2.071510  -0.805905  -4.220270  -1.502740  -0.000000   0.000000   0.000000
 -0.080821  89.639100  -1.702160  -2.066350  -6.173160  -4.745880   0.632953   3.865580   0.800119   1.215770   7.739430   1.562630   1.518350  -0.656099   0.017402   2.495540  -1.327410   1.239030  -5.852530  -0.645907  -0.513223 -75.416800  19.693500  -0.757441  -1.667200  -4.207090 -18.118400  18.083100 -14.945100   7.418940  38.789900  35.343200 -68.715100 -32.958100   0.001494   0.004455 -11.496100   0.001823   0.006046 -31.392300   6.511000 -10.558500 -26.169100  -0.021861  -0.005115 -18.331200  -0.012750  -0.008063 -28.554800  -1.006170   1.848460 -36.966200  -0.004719  -0.003314 -24.619400  -0.003086  -0.007452 -28.328100  -0.998505   1.852180 -34.586700  -0.001642  -0.001492 -23.034700   0.000231  -0.001655 -31.216200  -1.090380   1.799320 -46.847900  -0.008014   0.000136 -31.200700   0.000910  -0.012514  11.269800  -0.669799   6.284770  69.604100   9.420160  -3.846130  -2.033140  -6.173820  13.610900 -14.525500  -6.358630   2.169980 -38.881100  42.171200  75.925500  38.670100   0.003157  -0.002419  14.533100   0.002665  -0.000466  41.199200  11.467800  12.781700  34.767700  -0.014353   0.012942  24.811900  -0.012944   0.005685  28.650400   2.853870   5.208620  41.233300  -0.013422   0.006291  27.461300  -0.005609   0.007782  27.795600   1.785270   3.387160  31.044000   0.000526   0.005171  20.675300  -0.005194   0.006327  32.202900   0.841089   1.335330  48.319000  -0.004437   0.003642  32.180500  -0.003079   0.004849   1.592260   7.406220   2.485670   1.292530   0.068707   5.578000  -2.142420  -2.779590   0.979360  -0.000000   0.000000   0.000000   3.947910   4.693890  -1.514040  -2.238130   4.320110  -2.090170  -0.801881  -4.253300  -1.436390   0.000000   0.000000   0.000000
 -0.066619  89.639200  -1.646270  -2.110630  -6.280080  -4.802470   0.658581   3.925190   0.785081   1.267450   7.858790   1.529600   1.511440  -0.693262   0.019018   2.484540  -1.402790   1.293240  -5.924290  -0.617229  -0.554387 -75.511500  19.908800  -0.739792  -1.752240  -4.675740 -18.568700  18.217600 -15.332600   7.508180  38.913300  35.891300 -68.676600 -33.535800   0.003659   0.004576 -11.640500   0.001396   0.006134 -32.465500   7.069000 -10.899800 -27.086300  -0.033767  -0.006303 -18.802300  -0.022459  -0.012724 -28.572800  -0.943568   1.731150 -37.128800  -0.007756  -0.003166 -24.727700  -0.003155  -0.007157 -28.329000  -0.935697   1.734960 -34.566600  -0.001345  -0.001462 -23.021300   0.000122  -0.001646 -31.184100  -1.021560   1.686470 -46.796400  -0.008118   0.000211 -31.166500   0.000978  -0.012671  11.227400  -0.744407   6.259890  69.794400   9.220980  -3.732530  -2.322500  -6.830370  14.088800 -14.541600  -6.041870   2.194130 -38.256400  41.964500  75.206900  39.356800   0.003090  -0.002425  15.160400   0.002543  -0.000588  42.652800  11.474100  12.176900  35.910300  -0.019479   0.012974  25.971000  -0.014721   0.010464  28.635400   2.900560   5.301370  41.237300  -0.013371   0.006299  27.464000  -0.005770   0.007787  27.767500   1.913470   3.640760  30.861500  -0.003238   0.004938  20.553700  -0.005251   0.006175  32.075500   0.864411   1.380000  48.130200  -0.004472   0.003499  32.054700  -0.003171   0.004793   1.615740   7.596550   2.522080   1.280360   0.006096   5.582530  -2.130090  -2.799600   0.988302  -0.000000   0.000000   0.000000   3.950630   4.837770  -1.555210  -2.214720   4.329250  -2.094380  -0.800671  -4.283560  -1.351070  -0.000000   0.000000   0.000000
